<svg width="1707" height="402" viewBox="0 0 1707 402" fill="none" xmlns="http://www.w3.org/2000/svg">
<g clip-path="url(#clip0_1006_190)">
<path d="M943.733 17.2667L926.667 34.3334V101.667C926.533 158.733 926.267 169.4 924.667 171.533C923.067 173.667 922.667 178.733 922.667 194.6V215H918.267C914.533 215 912.267 213.267 902.4 203.267L890.667 191.667L890.4 167C890 142.6 890 142.333 887.067 141.933C884.4 141.533 884 140.733 884 135.533C884 130.6 883.6 129.667 881.333 129.667C878.933 129.667 878.667 128.733 878.667 121.667C878.667 115.533 878.267 113.667 876.8 113.667C875.333 113.667 874.667 111.667 874.4 106.6L874 99.6667L867.067 99.2667L860 98.8667V106.333C860 111.667 859.467 113.933 858 114.467C856.533 115 856 117.267 856 121.8C856 127.4 855.6 128.333 853.333 128.333C850.8 128.333 850.667 129.267 850.667 157.667V187H846.8C843.067 187 842.8 187.267 842.4 193.267C842 199.267 841.733 199.667 837.467 200.467C834.8 201 830.533 203.8 826.533 207.8L820 214.2V181.267C820 149.533 819.867 148.333 817.467 148.333C815.6 148.333 814.667 147.267 814.4 144.6C814 141.133 813.733 141 806.667 141C799.6 141 799.333 141.133 798.933 144.6C798.533 147.533 797.733 148.333 795.2 148.333H792V167.667V187H784.667H777.333V177.533V168.2L771.733 168.6C767.067 168.867 766 169.533 766 171.667C766 173.4 764.933 174.467 763.067 174.733C760.4 175.133 760 175.933 760 181.133V187H748.133H736.4L730.133 180.333C725.067 174.867 724 172.867 724 168.6C724 164.6 723.067 162.6 719.333 159C715.867 155.667 714.667 153.4 714.667 150.067C714.667 145.933 714.4 145.667 710 145.667C705.867 145.667 705.333 145.267 705.333 142.333C705.333 139.133 704.933 139 697.333 139C689.733 139 689.333 139.133 689.333 142.2C689.333 144.467 688.533 145.667 686.533 145.933C683.867 146.333 683.733 147.133 683.6 164.333L683.333 182.333L679.733 182.733C676.133 183.133 676 183.4 676 191.533C676 199.8 676 199.8 668.667 207L661.333 214.2V176.733V139.133L651.733 138.733L642 138.333L641.6 133.267L641.2 128.333H628.8H616.4L609.467 135.533L602.667 142.867V168.2V193.667H597.6C594.133 193.667 591.6 194.6 590.133 196.2C588.8 197.667 585.867 199 583.467 199.267C579.333 199.667 579.333 199.667 578.933 208.067L578.533 216.467L568.267 216.067L558 215.667L557.333 199.667L556.667 183.667L549.067 183.267L541.333 182.867V133.667V84.3334H529.067C517.6 84.3334 516.533 84.6001 513.067 87.9334C509.333 91.4001 509.333 91.6667 509.333 107.933V124.467L503.733 124.067L498 123.667L497.6 78.7334L497.333 33.8001L486.933 33.4001L476.667 33.0001L476.267 25.2667C476 21.1334 475.2 17.6667 474.533 17.6667C473.733 17.6667 467.333 23.4001 460.267 30.4667L447.333 43.2667L446.667 112.067L446 181H438.667H431.333L430.933 168.6C430.667 158.867 430.133 156.333 428.667 156.333C426.933 156.333 426.667 153.133 426.667 137.667V119H422.667C420 119 417.467 117.8 415.467 115.667C412.667 112.6 411.333 112.333 401.733 112.333C392.4 112.333 390.8 112.733 388.267 115.4C385.467 118.333 385.333 119.667 385.333 144.067V169.667H377.333H369.333V182.333V195.133L357.733 194.733L346 194.333L345.6 140.6L345.333 87.0001H330.8H316.133L315.733 91.2667C315.467 94.6001 314.667 95.8001 312.4 96.0667L309.333 96.4667V149.8V203H305.467C301.733 203 301.467 203.267 301.067 209.267L300.667 215.667L293.067 216.067L285.333 216.467V206.333C285.333 196.6 285.2 196.333 282 196.333H278.667V183V169.667H274.667C270.933 169.667 270.667 169.4 270.667 164.333C270.667 159.533 270.267 159 267.467 159C264.667 159 264.133 158.2 263.733 154.6L263.333 150.333H254.667C247.867 150.333 246 150.733 246 152.333C246 153.667 244.267 154.6 240.667 155L235.333 155.667L234.933 168.733L234.533 181.8L228.933 181.4L223.333 181L222.933 166.6L222.533 152.333H214.8C208.4 152.333 206.667 152.867 204 155.667C201.333 158.467 199.6 159 193.067 159H185.333V183C185.333 201.267 184.933 207 183.733 207.267C182.8 207.267 181.067 207.4 180 207.533C178.8 207.667 177.867 209.267 177.6 212.067L177.2 216.467L162.267 216.067L147.333 215.667L146.933 187.267C146.667 163.4 146.267 159 144.667 159C143.333 159 142.667 157.667 142.667 155C142.667 151 142.533 151 135.333 151C128.4 151 128 151.267 128 154.2C128 156.6 127.2 157.533 125.067 157.933C122.8 158.2 121.867 159.4 121.6 161.933C121.333 164.067 120.667 165.667 120 165.667C119.2 165.667 118.533 176.733 118.4 190.6L118 215.667H109.333H100.667L100 205.8L99.3333 196.067L88 195.8L76.6667 195.667L76.2667 159.267C76 124.067 75.8667 123 73.3333 123C71.6 123 70.6667 122.067 70.6667 120.333C70.6667 117.933 69.7333 117.667 62.5333 117.667C58.1333 117.667 54.8 118.2 55.2 118.867C56.6667 121.267 54.4 124.333 51.2 124.333H48V147V169.667H40.6667H33.3333L33.0667 192.6L32.6667 215.667L28.4 216.067L24 216.467V187.133V157.667H18.5333C14.2667 157.667 12.9333 158.2 12.4 160.333C12 161.8 10.5333 163 9.2 163C6.93333 163 6.66667 164.733 6.4 189.267C6 215.533 6 215.667 3.06667 216.067L0 216.467V309.133V401.667H853.333H1706.67V285.667V169.667H1697.33H1688L1687.73 192.6L1687.33 215.667H1677.33H1667.33L1666.93 171.267L1666.67 127H1659.6C1653.2 127 1652.13 127.4 1647.6 132.067L1642.67 137.133V161.4V185.667H1638.8C1633.6 185.667 1628 192.2 1628 198.467C1628 202.067 1627.47 203 1625.33 203C1622.8 203 1622.67 202.067 1622.67 175V147H1616.27C1607.73 147 1604.27 150.467 1603.73 159.667L1603.33 166.333L1595.73 166.733L1588 167.133L1587.73 141.4C1587.33 116.733 1587.2 115.667 1584.67 115.667C1582.93 115.667 1581.87 114.6 1581.6 112.6C1581.2 110.067 1580.4 109.533 1576.93 109.933C1573.33 110.2 1572.53 111 1572.27 113.933C1571.87 117.267 1571.2 117.667 1567.07 117.667H1562.27L1562.93 159.933C1563.33 183.267 1563.33 205.533 1563.07 209.267L1562.27 216.333H1546.53H1530.67V198.333V180.333H1524.67H1518.8L1518.4 164.6L1518 149L1506.4 148.6L1494.67 148.2V178.333V208.333H1490H1485.33V192.467C1485.33 176.867 1485.2 176.467 1481.87 173.8C1479.2 171.8 1476.4 171 1471.2 171H1464V153V135H1455.33H1446.67V154.867C1446.67 172.6 1446.4 175 1444 178.067C1442 180.6 1441.33 183.4 1441.33 190.2V199H1434H1426.8L1426.4 179.267L1426 159.667L1417.73 159.267L1409.33 158.867V162.867C1409.33 166.733 1409.07 166.867 1403.07 167.267L1396.67 167.667L1396.27 183.267L1395.87 199H1388.67H1381.33V181V163H1374.27C1368.4 163 1366.53 163.533 1364 166.333C1361.33 169.133 1359.6 169.667 1353.33 169.667C1344 169.667 1340 173 1340 180.733V185.667H1332.67H1325.47L1325.07 167.933L1324.67 150.333L1311.73 149.933L1298.67 149.533V160.867V172.2L1289.07 172.6L1279.33 173L1278.93 188.6L1278.53 204.333H1266.67H1254.67V199.667C1254.67 195.933 1253.6 194.067 1248.67 189.533C1242.93 184.333 1242.67 183.667 1242.67 176.867V169.667H1233.33H1224V180.067C1224 188.6 1223.47 191 1221.6 192.733C1217.33 196.6 1211.73 195.533 1206.27 189.933C1201.6 185.267 1201.33 184.333 1201.33 176.6V168.333H1196.67H1192V149.667V131H1181.33H1170.67V173.667V216.467L1162.4 216.067L1154 215.667L1153.6 196.867L1153.2 178.067L1149.33 174.333C1145.47 170.6 1145.33 170.067 1145.33 158.6C1145.33 142.867 1144.67 141.667 1134.67 141.667H1126.67V164.733V187.8L1122.67 191.667L1118.67 195.533V183.267V171H1114.67C1111.33 171 1110.67 170.467 1110.67 167.8C1110.67 163.533 1109.73 163 1102.8 163.933C1098.67 164.467 1096.8 165.4 1096.4 167.133C1095.87 168.867 1094.4 169.667 1091.87 169.667H1088L1087.73 192.6L1087.33 215.667H1079.33H1071.33L1070.93 187.267L1070.67 159H1066.93C1064.27 159 1061.47 157.133 1056.67 152.333C1050.4 146.067 1049.73 145.667 1043.07 145.667C1036.4 145.667 1036 145.8 1036 149C1036 151.933 1035.47 152.333 1030.67 152.333H1025.33V157.667V163H1018C1010.8 163 1010.67 163 1010.67 167C1010.67 170.6 1010.27 171 1006.67 171H1002.67V193.667V216.333H992.8C985.067 216.333 982.8 215.933 982.133 214.2C981.733 213 981.333 204.733 981.333 195.667C981.333 182.733 980.933 179 979.333 177.667C977.867 176.467 977.333 173.133 977.333 164.867V153.667H969.333H961.333L961.067 77.0001L960.667 0.333394L943.733 17.2667Z" fill="#000000"/>
</g>
<defs>
<clipPath id="clip0_1006_190">
<rect width="1707" height="402" fill="white"/>
</clipPath>
</defs>
</svg>
