<?xml version="1.0" standalone="no"?>
<!DOCTYPE svg PUBLIC "-//W3C//DTD SVG 20010904//EN"
 "http://www.w3.org/TR/2001/REC-SVG-20010904/DTD/svg10.dtd">
<svg version="1.0" xmlns="http://www.w3.org/2000/svg"
 width="1280.000000pt" height="1280.000000pt" viewBox="0 0 1280.000000 1280.000000"
 preserveAspectRatio="xMidYMid meet">
<metadata>
Created by potrace 1.15, written by Peter Selinger 2001-2017
</metadata>
<g transform="translate(0.000000,1280.000000) scale(0.100000,-0.100000)"
fill="#000000" stroke="none">
<path d="M6400 12540 l0 -260 -60 0 -60 0 0 -110 0 -110 -81 0 -80 0 2 -82 2
-83 -48 -3 -48 -3 6 -62 c14 -146 61 -887 56 -891 -2 -2 -51 -9 -109 -15 -58
-6 -119 -13 -135 -16 l-31 -5 32 -245 c23 -177 37 -249 48 -261 19 -18 21 -41
4 -46 -8 -3 9 -160 61 -554 39 -302 71 -555 71 -561 0 -7 -6 -13 -13 -13 -10
0 -19 38 -33 133 -10 72 -23 132 -29 132 -6 0 -8 -17 -6 -40 8 -68 6 -105 -3
-105 -5 0 -49 194 -97 432 -48 238 -112 550 -143 693 -31 143 -59 272 -63 288
-6 31 -13 32 -103 12 -94 -21 -97 -20 -104 21 -6 27 -11 34 -24 30 -18 -5 -80
-20 -123 -30 -27 -6 -27 -5 -55 104 -26 98 -42 127 -57 102 -4 -6 25 -130 47
-200 5 -15 2 -22 -13 -27 -17 -5 -19 -10 -11 -31 14 -37 13 -44 -14 -53 l-23
-9 48 -198 c26 -109 46 -200 44 -202 -2 -3 -44 -7 -92 -9 l-88 -5 -65 193
c-61 184 -69 200 -151 324 -286 429 -525 575 -618 376 -23 -50 -26 -71 -29
-188 -5 -153 12 -274 63 -468 32 -125 41 -145 255 -549 122 -230 219 -420 217
-422 -2 -2 -15 5 -30 16 -14 11 -30 20 -36 20 -6 0 -11 3 -11 8 0 13 -61 114
-66 109 -3 -3 8 -29 25 -59 29 -51 43 -128 24 -128 -5 0 -21 25 -37 56 -36 69
-66 92 -102 75 -23 -10 -26 -8 -52 36 -31 53 -132 163 -150 163 -7 0 -30 28
-52 63 -22 34 -40 56 -40 50 0 -7 14 -35 30 -61 18 -30 30 -63 30 -84 0 -20 7
-41 15 -48 8 -7 12 -16 10 -21 -8 -12 19 -71 54 -123 30 -43 30 -44 11 -61
-29 -27 -24 -64 16 -123 21 -32 33 -60 29 -69 -4 -13 -8 -14 -17 -5 -7 7 -20
12 -29 12 -10 0 -36 26 -60 60 -23 33 -44 58 -47 56 -2 -3 13 -29 34 -58 24
-34 37 -62 36 -80 -1 -15 2 -29 8 -33 5 -3 10 -16 10 -29 0 -14 124 -194 320
-465 176 -244 320 -446 320 -451 0 -8 -120 -103 -125 -98 -1 2 -393 473 -870
1048 -478 575 -895 1078 -928 1118 -33 39 -63 72 -66 72 -4 0 -29 -20 -58 -45
-28 -25 -54 -45 -57 -45 -3 0 -22 18 -43 40 l-36 41 -24 -23 -24 -22 -58 64
c-52 58 -60 63 -75 51 -16 -13 -14 -17 16 -50 86 -92 83 -89 63 -111 -18 -20
-18 -21 20 -60 l39 -40 -27 -28 -28 -29 593 -615 c326 -338 602 -624 612 -636
18 -21 18 -23 2 -41 -17 -19 -37 1 -641 607 l-624 627 -70 -70 -71 -69 -40 39
-40 39 -25 -24 -25 -23 -61 58 c-57 55 -62 58 -75 40 -12 -16 -7 -24 49 -75
61 -56 62 -58 44 -78 -17 -19 -17 -21 23 -55 31 -27 40 -40 36 -55 -5 -16 32
-53 202 -200 115 -99 214 -187 220 -195 10 -12 6 -22 -22 -56 -20 -23 -49 -70
-65 -104 -31 -63 -81 -223 -81 -258 0 -11 -3 -19 -6 -19 -4 0 -45 27 -92 61
-98 70 -112 77 -112 56 0 -9 44 -46 98 -83 117 -81 107 -73 100 -79 -3 -3 -80
46 -170 110 -91 63 -171 115 -177 115 -35 0 8 -38 164 -144 l175 -119 0 -82 0
-82 511 -329 c281 -181 516 -332 521 -335 7 -4 7 -13 1 -23 -8 -14 -13 -13
-45 9 l-37 25 -18 -26 -18 -25 -279 168 c-177 106 -281 163 -283 156 -3 -9
-10 -10 -23 -3 -13 7 -21 7 -25 0 -3 -6 1 -13 9 -16 26 -10 18 -25 -9 -18 -27
7 -35 -10 -10 -20 8 -3 15 -10 15 -16 0 -7 -6 -8 -19 0 -13 7 -22 7 -26 0 -3
-6 1 -13 9 -16 26 -10 18 -25 -9 -18 -27 7 -35 -10 -10 -20 8 -3 15 -10 15
-16 0 -7 -6 -8 -19 0 -13 7 -22 7 -26 0 -3 -6 1 -13 9 -16 23 -9 20 -27 -3
-19 -23 7 -38 -10 -16 -19 22 -8 18 -25 -5 -19 -25 7 -26 -5 -2 -24 15 -13 15
-14 -10 -8 -30 6 -40 -11 -13 -21 25 -10 17 -25 -10 -18 -29 7 -33 -3 -8 -22
10 -7 15 -16 11 -20 -4 -4 -14 -2 -21 4 -8 7 -17 9 -20 5 -12 -11 -8 -23 7
-23 8 0 16 -6 19 -13 3 -7 197 -102 431 -211 235 -110 425 -201 423 -203 -2
-2 -19 3 -38 11 -20 8 -98 26 -175 41 -76 14 -147 28 -158 30 -14 3 -23 -8
-39 -46 -12 -27 -27 -49 -33 -49 -7 0 -52 16 -101 35 -87 36 -87 36 -103 15
-15 -20 -16 -20 -150 31 -182 68 -1024 387 -1339 507 -151 57 -256 92 -258 86
-2 -6 -9 -18 -16 -27 -11 -14 -27 -10 -142 33 -71 26 -133 46 -137 43 -5 -2
-8 -12 -8 -23 0 -14 20 -25 88 -49 153 -56 172 -64 172 -73 0 -6 -23 -82 -51
-169 -29 -88 -50 -161 -48 -163 2 -2 157 -47 344 -100 187 -54 363 -104 391
-112 l51 -15 -18 -64 -18 -65 37 -9 c20 -6 166 -42 325 -82 255 -64 287 -74
287 -92 0 -21 6 -21 -104 -1 -32 6 -33 5 -43 -35 -6 -23 -8 -43 -4 -45 3 -2
32 -9 64 -16 59 -12 59 -12 53 -43 -3 -18 -8 -51 -12 -75 -4 -23 -9 -44 -13
-46 -3 -2 -69 7 -145 20 -96 17 -142 22 -149 15 -6 -6 -9 -13 -6 -15 2 -2 69
-15 149 -28 132 -22 145 -26 143 -44 -2 -19 12 -22 170 -48 94 -15 174 -32
178 -37 3 -6 125 -28 270 -51 145 -22 266 -42 268 -44 11 -10 -9 -11 -63 -3
-33 6 -65 8 -71 5 -7 -2 -17 -46 -23 -101 -6 -54 -12 -99 -14 -100 -2 -1 -100
6 -218 16 -118 10 -600 50 -1070 88 -470 39 -876 73 -902 76 l-47 6 -7 -50 -6
-50 -78 6 -78 6 -7 -82 -7 -83 -103 4 -104 3 -5 -29 c-3 -16 -6 -44 -6 -62 l0
-34 -260 0 -260 0 0 -40 0 -40 260 0 260 0 0 -65 0 -65 110 0 110 0 0 -81 0
-80 83 2 82 2 3 -48 3 -47 72 6 c95 8 632 45 775 53 83 4 112 3 112 -6 0 -18
20 -202 25 -236 l5 -31 245 32 c177 23 249 37 261 48 18 19 41 21 46 4 3 -8
48 -6 174 11 93 12 270 35 394 52 124 16 293 38 375 49 178 24 185 24 185 7 0
-10 -35 -19 -127 -31 -129 -17 -147 -22 -139 -35 3 -4 35 -3 71 2 47 7 70 6
77 -1 15 -15 26 -12 -257 -67 -446 -87 -1174 -241 -1184 -250 -2 -3 4 -42 13
-87 9 -46 16 -88 16 -94 0 -7 -16 -15 -36 -18 -27 -6 -34 -11 -30 -24 10 -33
35 -146 33 -148 -1 -2 -51 -15 -110 -31 -97 -25 -125 -41 -99 -57 4 -2 55 8
112 24 101 29 119 28 120 -2 0 -4 12 -3 26 2 37 14 43 13 54 -15 5 -13 15 -23
22 -20 36 13 382 94 386 90 3 -2 7 -44 9 -92 l5 -88 -191 -64 c-176 -58 -201
-70 -309 -140 -440 -288 -594 -536 -393 -630 50 -23 71 -26 188 -29 153 -5
274 12 468 63 125 32 145 42 549 255 230 121 420 219 422 217 3 -2 -5 -15 -16
-30 -11 -14 -20 -30 -20 -36 0 -6 -3 -11 -7 -11 -14 0 -115 -61 -110 -66 3 -3
29 8 59 25 34 19 69 31 92 31 46 0 41 -10 -29 -49 -63 -36 -83 -67 -66 -100
11 -19 7 -24 -36 -49 -53 -31 -163 -132 -163 -150 0 -7 -28 -30 -62 -52 -35
-22 -57 -40 -51 -40 7 0 36 14 65 32 34 21 62 31 81 29 16 -1 36 4 45 12 18
16 20 17 50 17 11 0 46 18 80 39 59 39 61 39 78 20 26 -28 63 -23 122 17 32
21 60 33 69 29 13 -4 14 -8 5 -17 -7 -7 -12 -20 -12 -29 0 -10 -26 -36 -60
-60 -77 -54 -71 -64 7 -12 32 22 66 37 77 35 10 -2 23 1 29 7 6 6 21 11 32 11
12 0 214 139 464 320 244 176 446 320 451 320 8 0 103 -120 98 -124 -43 -35
-2209 -1834 -2222 -1847 -19 -18 -18 -19 29 -74 l48 -56 -42 -43 -41 -42 22
-22 23 -22 -65 -59 c-58 -52 -63 -60 -51 -75 13 -16 17 -14 50 16 92 86 89 83
111 63 20 -18 21 -18 60 20 l40 39 28 -27 28 -27 611 587 c335 324 622 599
636 612 26 23 28 24 46 7 19 -17 3 -34 -607 -641 l-627 -624 70 -70 69 -71
-39 -40 -39 -40 24 -25 23 -25 -58 -60 c-54 -57 -56 -62 -39 -74 17 -13 24 -8
75 48 55 59 57 61 76 43 20 -17 21 -16 57 23 26 29 42 39 55 35 14 -4 60 42
206 212 104 120 190 220 191 222 2 2 14 -4 26 -13 116 -85 248 -143 368 -162
22 -4 40 -9 40 -11 0 -2 -29 -46 -65 -98 -36 -51 -65 -96 -65 -99 0 -3 6 -6
14 -6 8 0 45 44 82 98 81 116 73 107 79 100 3 -3 -46 -80 -110 -171 -63 -91
-115 -170 -115 -176 0 -35 38 9 145 164 l119 175 82 0 82 0 332 517 c183 285
334 520 336 521 1 2 10 0 18 -5 14 -8 13 -13 -9 -45 l-25 -37 25 -18 25 -18
-167 -279 c-106 -176 -163 -281 -156 -283 9 -3 10 -10 3 -23 -7 -13 -7 -21 0
-25 6 -3 13 1 16 9 10 26 25 18 18 -9 -7 -27 10 -35 20 -10 3 8 10 15 16 15 7
0 8 -6 0 -19 -7 -13 -7 -22 0 -26 6 -3 13 1 16 9 10 26 25 18 18 -9 -7 -27 10
-35 20 -10 3 8 10 15 16 15 7 0 8 -6 0 -19 -7 -13 -7 -22 0 -26 6 -3 13 1 16
9 9 23 27 20 19 -3 -7 -23 10 -38 19 -16 3 8 10 15 16 15 8 0 8 -6 0 -20 -14
-26 7 -28 27 -2 13 15 14 15 8 -10 -6 -30 11 -40 21 -13 10 25 25 17 18 -10
-7 -29 3 -33 22 -8 7 10 16 15 20 11 4 -4 2 -14 -4 -21 -20 -24 0 -27 24 -4
13 12 112 212 220 445 108 232 199 421 201 419 2 -2 -3 -20 -11 -39 -8 -19
-26 -97 -41 -174 -14 -76 -27 -147 -29 -157 -3 -14 9 -24 49 -42 l54 -24 -40
-98 c-39 -97 -39 -98 -19 -113 22 -17 61 89 -566 -1564 -35 -93 -64 -173 -64
-177 0 -5 11 -11 25 -15 29 -7 32 5 -30 -162 -42 -115 -43 -131 -8 -132 6 0
32 59 58 130 26 72 52 130 57 130 6 0 82 -23 169 -51 88 -29 161 -50 163 -48
2 2 47 157 100 344 54 187 104 363 112 392 l15 51 64 -18 65 -18 9 36 c6 20
42 166 82 324 64 254 75 288 92 288 21 0 21 6 1 -104 -6 -32 -5 -33 35 -43 23
-6 43 -8 45 -4 2 3 9 32 16 64 12 59 12 59 43 53 18 -3 51 -8 75 -12 23 -4 44
-9 46 -13 2 -3 -7 -67 -20 -141 -13 -74 -22 -141 -19 -147 12 -34 24 -2 45
124 26 162 27 165 49 158 15 -4 21 17 45 167 15 95 32 175 37 179 6 3 28 125
51 270 22 145 42 266 44 268 10 11 11 -9 3 -63 -6 -33 -8 -65 -5 -71 2 -7 46
-17 101 -23 54 -6 99 -12 100 -14 2 -3 -165 -2043 -179 -2180 l-6 -56 50 -7
49 -7 -6 -77 -6 -78 83 -7 82 -8 -4 -103 -3 -104 29 -5 c16 -3 44 -6 62 -6
l34 0 0 -260 0 -260 45 0 45 0 0 260 0 260 60 0 60 0 0 110 0 110 81 0 80 0
-2 82 -2 83 46 3 c26 2 47 6 47 10 0 4 -11 169 -25 367 -38 552 -40 585 -26
585 18 0 202 20 236 25 l31 5 -32 245 c-23 177 -37 249 -48 261 -19 18 -21 41
-4 46 8 3 -9 160 -61 554 -39 302 -71 555 -71 562 0 6 6 12 13 12 10 0 19 -38
33 -130 10 -72 23 -130 29 -128 5 2 7 19 5 38 -7 61 -5 95 4 100 5 3 48 -191
96 -430 48 -239 113 -552 144 -695 31 -143 59 -272 63 -287 6 -32 13 -33 103
-13 94 21 97 20 104 -21 6 -27 11 -34 24 -30 18 5 80 20 123 30 27 6 27 5 55
-104 26 -98 42 -127 57 -102 4 6 -25 130 -47 200 -5 15 -2 22 13 27 17 5 19
10 11 31 -14 37 -13 44 14 54 l23 9 -47 198 c-27 109 -47 200 -45 202 2 2 44
6 92 8 l88 5 65 -193 c62 -184 69 -200 151 -324 284 -427 520 -572 616 -376
26 51 28 68 31 188 5 153 -12 275 -63 468 -32 125 -42 146 -255 549 -121 230
-219 420 -217 422 2 3 15 -5 30 -16 14 -11 29 -20 34 -20 4 0 23 -28 41 -61
19 -33 36 -58 39 -56 2 3 -9 29 -26 59 -29 51 -43 128 -23 128 4 0 20 -25 36
-56 36 -69 66 -92 102 -75 23 10 26 8 52 -36 31 -53 132 -163 150 -163 7 0 30
-28 52 -62 22 -35 40 -57 40 -51 0 7 -13 35 -30 61 -18 30 -30 63 -30 84 0 20
-7 41 -15 48 -8 7 -12 16 -10 21 8 12 -19 71 -54 123 -30 43 -30 44 -11 61 29
27 24 64 -16 123 -21 32 -33 60 -29 69 4 13 8 14 17 5 7 -7 20 -12 29 -12 10
0 36 -26 60 -60 54 -77 64 -71 12 7 -22 32 -37 66 -35 77 2 10 -1 23 -7 29 -6
6 -11 21 -11 33 0 12 -136 209 -320 464 -176 243 -320 446 -320 450 0 8 120
103 125 98 316 -382 1842 -2217 1851 -2227 11 -12 21 -7 68 32 30 26 57 47 60
47 3 0 22 -18 43 -40 l36 -41 24 23 24 23 58 -65 c52 -58 60 -63 75 -51 16 13
14 17 -16 50 -86 92 -83 89 -63 111 18 20 18 21 -20 60 l-39 40 28 28 27 29
-582 604 c-320 332 -595 619 -612 636 -30 32 -30 33 -13 52 18 20 30 9 641
-607 l623 -627 71 70 71 69 40 -39 40 -39 24 24 25 23 62 -57 c56 -52 62 -55
74 -39 11 15 6 24 -49 74 -59 55 -61 57 -43 76 17 20 16 21 -23 57 -29 26 -39
42 -35 55 4 14 -43 60 -215 210 -121 106 -220 196 -220 200 0 4 9 16 20 26 55
50 137 237 156 353 4 28 11 41 19 38 7 -2 50 -32 97 -65 47 -34 88 -61 92 -61
3 0 6 7 6 15 0 7 -43 44 -95 80 -87 61 -116 85 -100 85 3 0 79 -52 169 -115
90 -63 169 -115 175 -115 35 0 -8 38 -164 144 l-175 120 0 82 0 82 -517 332
c-285 183 -520 334 -521 336 -2 1 0 10 5 18 8 14 13 13 45 -9 l37 -25 18 25
18 25 279 -167 c176 -106 281 -163 283 -156 3 9 10 10 23 3 13 -7 21 -7 25 0
3 6 -1 13 -9 16 -26 10 -18 25 9 18 27 -7 35 10 10 20 -8 3 -15 10 -15 16 0 7
6 8 19 0 13 -7 22 -7 26 0 3 6 -1 13 -9 16 -26 10 -18 25 9 18 27 -7 35 10 10
20 -8 3 -15 10 -15 16 0 7 6 8 19 0 13 -7 22 -7 26 0 3 6 -1 13 -9 16 -23 9
-20 27 3 19 23 -7 38 10 16 19 -22 8 -18 25 5 19 25 -7 26 5 3 24 -16 13 -16
14 10 8 29 -6 39 11 12 21 -25 10 -17 25 10 18 27 -7 36 12 10 22 -25 10 -17
25 10 18 14 -3 25 -2 25 2 0 19 -80 60 -475 244 -225 105 -412 194 -415 197
-3 3 4 3 15 -2 37 -15 159 -44 269 -63 l108 -20 24 54 23 53 98 -40 c97 -39
98 -39 113 -19 18 23 -87 61 1325 -475 198 -75 373 -142 389 -148 20 -7 31 -7
33 0 2 6 9 17 16 26 11 14 26 10 142 -32 124 -46 130 -47 139 -29 12 25 9 27
-136 78 -65 23 -118 46 -118 52 0 6 23 82 51 169 29 88 50 161 48 163 -2 2
-157 47 -344 100 -187 54 -363 104 -392 112 l-51 15 18 64 18 64 -31 9 c-18 5
-164 42 -324 83 -254 64 -293 77 -293 93 0 20 -6 20 104 0 32 -6 33 -5 43 35
6 23 8 43 4 45 -3 2 -32 9 -64 16 -59 12 -59 12 -53 43 3 18 8 51 12 75 4 23
9 44 13 46 3 2 69 -7 145 -20 94 -16 143 -21 150 -14 5 5 8 12 5 14 -2 2 -60
14 -129 25 -175 30 -172 29 -165 50 5 16 -11 21 -167 45 -95 16 -176 32 -179
37 -3 6 -125 28 -270 51 -145 22 -266 42 -268 44 -11 10 9 11 68 2 35 -5 67
-6 71 -1 5 4 13 50 18 101 5 51 11 95 13 96 2 2 265 -18 584 -44 319 -27 803
-67 1075 -89 272 -23 514 -43 536 -46 l42 -6 7 50 7 50 78 -6 78 -6 7 82 7 83
103 -4 104 -3 5 29 c3 16 6 44 6 62 l0 34 260 0 260 0 0 45 0 45 -260 0 -260
0 0 60 0 60 -110 0 -110 0 0 81 0 80 -82 -2 -83 -2 -3 48 -3 48 -62 -6 c-161
-14 -887 -60 -891 -56 -3 2 -10 56 -16 119 -18 177 16 161 -267 124 -178 -23
-246 -36 -258 -48 -19 -19 -42 -21 -47 -4 -3 9 -25 9 -94 0 -391 -52 -1010
-132 -1021 -132 -7 0 -13 6 -13 13 0 10 38 19 133 33 75 11 130 23 127 29 -3
5 -21 7 -40 5 -63 -7 -100 -5 -100 5 0 6 76 25 168 43 423 82 1261 259 1271
268 2 2 -4 41 -13 86 -21 109 -22 106 19 114 27 5 34 10 31 23 -21 66 -34 146
-25 151 5 4 54 17 109 30 91 21 118 37 92 53 -6 4 -130 -25 -200 -47 -15 -5
-22 -2 -27 13 -5 17 -10 19 -31 11 -37 -14 -44 -13 -54 14 l-9 23 -198 -47
c-109 -27 -200 -47 -202 -45 -2 2 -6 44 -8 92 l-5 88 193 65 c183 62 200 70
323 151 429 284 573 520 377 616 -51 26 -68 28 -188 31 -153 4 -274 -12 -468
-62 -125 -33 -145 -42 -549 -255 -230 -122 -420 -220 -422 -218 -3 2 5 15 16
30 11 14 20 29 20 34 0 4 28 23 61 41 33 19 58 36 56 39 -3 2 -29 -9 -59 -26
-51 -29 -128 -43 -128 -23 0 4 27 22 61 40 67 37 88 67 70 101 -11 19 -7 24
36 50 67 41 103 71 103 84 0 7 10 17 22 22 12 6 29 23 37 38 9 16 41 44 71 62
30 19 49 35 43 35 -7 0 -35 -13 -61 -30 -30 -18 -63 -30 -84 -30 -20 0 -41 -7
-48 -15 -7 -8 -16 -12 -21 -10 -12 8 -71 -19 -123 -54 -43 -30 -44 -30 -61
-11 -27 29 -64 24 -123 -16 -32 -21 -60 -33 -69 -29 -13 4 -14 8 -5 17 7 7 12
20 12 29 0 10 26 36 60 60 77 54 71 64 -7 12 -32 -22 -66 -37 -77 -35 -10 2
-23 -1 -29 -7 -6 -6 -21 -11 -33 -11 -12 0 -207 -134 -464 -320 -244 -176
-446 -320 -450 -320 -8 0 -103 121 -98 125 2 1 500 415 1108 920 608 505 1111
923 1119 931 12 11 8 20 -25 59 -21 26 -43 53 -48 60 -6 8 4 24 33 50 l42 38
-23 24 -23 24 65 58 c58 52 63 60 51 75 -13 16 -17 14 -50 -16 -92 -86 -89
-83 -111 -63 -20 18 -21 18 -60 -20 l-40 -39 -28 27 -29 28 -599 -577 c-329
-317 -616 -593 -636 -612 -37 -35 -38 -35 -58 -17 -20 18 -12 26 608 641 l627
622 -70 71 -69 71 39 40 39 40 -24 24 -23 25 58 62 c53 57 56 64 40 76 -16 11
-25 5 -75 -50 -56 -60 -58 -62 -77 -44 -20 17 -21 16 -57 -23 -26 -29 -42 -39
-55 -35 -15 4 -59 -41 -205 -209 -102 -118 -190 -217 -195 -221 -5 -3 -28 11
-51 30 -22 19 -69 48 -103 64 -63 31 -223 81 -258 81 -11 0 -19 3 -19 6 0 3
29 48 65 99 36 52 65 96 65 99 0 3 -6 6 -14 6 -8 0 -45 -44 -82 -97 -81 -118
-73 -108 -80 -101 -3 3 47 80 110 171 64 91 116 170 116 176 0 35 -38 -9 -144
-164 l-120 -175 -82 0 -82 0 -332 -517 c-183 -285 -334 -520 -336 -521 -1 -2
-10 0 -18 5 -14 8 -13 13 9 45 l25 37 -26 18 -25 19 168 278 c106 177 163 281
156 283 -9 3 -10 10 -3 23 7 13 7 21 0 25 -6 3 -13 -1 -16 -9 -10 -26 -25 -18
-18 9 7 27 -10 35 -20 10 -3 -8 -10 -15 -16 -15 -7 0 -8 6 0 19 7 13 7 22 0
26 -6 3 -13 -1 -16 -9 -10 -26 -25 -18 -18 9 7 27 -10 35 -20 10 -3 -8 -10
-15 -16 -15 -7 0 -8 6 0 19 7 13 7 22 0 26 -6 3 -13 -1 -16 -9 -9 -23 -27 -20
-19 3 7 23 -10 38 -19 16 -3 -8 -10 -15 -16 -15 -8 0 -8 6 0 20 14 26 -7 28
-27 3 -13 -16 -14 -16 -8 10 6 29 -11 39 -21 12 -10 -25 -25 -17 -18 10 7 29
-3 33 -22 8 -7 -10 -16 -15 -20 -11 -4 4 -2 14 4 21 7 8 9 17 5 20 -11 12 -23
8 -23 -7 0 -8 -6 -16 -13 -19 -7 -3 -102 -197 -212 -431 -109 -234 -200 -424
-202 -422 -2 1 3 19 11 38 8 19 26 97 41 174 14 76 27 147 30 157 3 14 -9 24
-50 43 l-54 23 40 98 c39 97 39 98 19 113 -21 16 -19 22 208 620 126 333 274
722 328 864 55 147 93 261 87 263 -5 2 -17 9 -26 16 -14 11 -11 26 32 142 27
72 47 133 44 138 -2 4 -13 7 -23 7 -19 0 -20 -2 -85 -182 -15 -43 -32 -78 -37
-78 -6 0 -82 23 -169 51 -88 29 -161 50 -163 48 -2 -2 -47 -157 -100 -344 -54
-187 -104 -363 -112 -391 l-15 -51 -64 18 -64 18 -9 -32 c-5 -18 -42 -164 -82
-324 -65 -256 -77 -293 -94 -293 -20 0 -20 -6 0 104 6 32 5 33 -35 43 -23 6
-43 8 -45 4 -2 -3 -9 -32 -16 -63 -6 -32 -17 -58 -23 -57 -7 0 -41 6 -77 13
-75 15 -71 -4 -39 180 14 83 17 122 10 129 -6 6 -12 9 -15 6 -2 -2 -13 -62
-25 -134 -28 -165 -29 -167 -50 -160 -15 4 -20 -15 -45 -167 -15 -95 -32 -175
-37 -179 -6 -3 -28 -125 -51 -270 -22 -145 -42 -266 -44 -268 -10 -11 -11 9
-3 63 6 33 8 65 5 71 -2 7 -46 17 -101 23 -54 6 -99 12 -100 14 -2 2 140 1735
178 2180 l5 56 -49 7 -48 7 6 77 6 78 -83 7 -82 8 4 103 3 104 -29 5 c-16 3
-44 6 -62 6 l-34 0 0 260 0 260 -45 0 -45 0 0 -260z m-300 -2145 c0 -16 -6
-25 -15 -25 -9 0 -15 9 -15 25 0 16 6 25 15 25 9 0 15 -9 15 -25z m-130 -10
c0 -16 -6 -25 -15 -25 -9 0 -15 9 -15 25 0 16 6 25 15 25 9 0 15 -9 15 -25z
m68 3 c-5 -32 -28 -35 -28 -4 0 17 5 26 16 26 10 0 14 -7 12 -22z m642 -942
c0 -8 -4 -18 -10 -21 -5 -3 -10 3 -10 14 0 12 5 21 10 21 6 0 10 -6 10 -14z
m103 -2 c8 -3 13 -13 11 -22 -1 -9 -6 -30 -9 -47 l-7 -30 -13 33 c-10 23 -23
34 -45 38 -45 10 -39 34 9 34 22 0 46 -3 54 -6z m844 -402 c-17 -40 -35 -72
-40 -72 -4 0 1 17 12 38 10 20 26 55 35 76 9 22 18 37 21 34 3 -2 -10 -37 -28
-76z m-84 -182 c-20 -44 -38 -78 -41 -75 -5 5 64 155 72 155 2 0 -12 -36 -31
-80z m-3159 -363 c260 -269 305 -321 295 -333 -11 -13 -61 33 -333 306 -304
304 -320 322 -301 336 10 8 22 13 26 12 3 -2 144 -146 313 -321z m4424 252 c8
-12 10 -25 5 -29 -4 -4 -149 -143 -321 -309 -264 -255 -316 -300 -328 -290
-13 11 33 61 303 331 175 175 320 318 323 318 3 0 11 -10 18 -21z m-1335 -36
c-23 -56 -53 -113 -59 -113 -2 0 0 8 5 18 5 9 21 43 35 75 27 63 44 80 19 20z
m-703 -32 c488 -88 889 -290 1234 -622 295 -284 499 -620 610 -1007 76 -263
91 -382 90 -697 -1 -211 -12 -305 -60 -500 -56 -226 -156 -467 -275 -663 -170
-280 -457 -571 -731 -741 -263 -165 -497 -257 -811 -322 -118 -24 -123 -25
-362 -34 -402 -17 -775 70 -1145 266 -418 220 -752 557 -974 981 -123 234
-225 576 -244 818 -14 168 -8 468 11 580 68 398 211 738 438 1043 94 125 280
322 388 409 166 134 421 284 599 353 199 76 469 142 622 151 47 3 87 8 90 11
13 14 410 -6 520 -26z m-3007 -1056 c37 -16 67 -33 67 -37 0 -7 -137 55 -149
68 -8 9 0 6 82 -31z m252 -123 c-5 -5 -155 64 -155 72 0 2 36 -12 80 -31 44
-20 78 -38 75 -41z m134 -57 c28 -14 51 -27 51 -30 0 -5 -132 56 -145 67 -14
13 33 -6 94 -37z m6261 -600 c0 -9 -9 -15 -25 -15 -16 0 -25 6 -25 15 0 9 9
15 25 15 16 0 25 -6 25 -15z m-6985 -60 l30 -7 -33 -13 c-23 -10 -34 -23 -38
-45 -10 -45 -34 -39 -34 9 0 52 8 70 28 65 9 -1 31 -6 47 -9z m6985 -11 c0
-10 -7 -14 -22 -12 -32 5 -35 28 -4 28 17 0 26 -5 26 -16z m10 -59 c0 -9 -9
-15 -25 -15 -16 0 -25 6 -25 15 0 9 9 15 25 15 16 0 25 -6 25 -15z m-7045 -45
c3 -5 -3 -10 -15 -10 -12 0 -18 5 -15 10 3 6 10 10 15 10 5 0 12 -4 15 -10z
m6077 -542 c-12 -12 -35 -1 -27 12 3 5 13 6 21 3 10 -4 12 -9 6 -15z m-2 -57
c0 -52 -8 -70 -28 -65 -9 1 -30 6 -47 9 l-30 7 33 13 c23 10 34 23 38 45 10
45 34 39 34 -9z m-7020 14 c0 -9 -9 -15 -25 -15 -16 0 -25 6 -25 15 0 9 9 15
25 15 16 0 25 -6 25 -15z m8 -62 c2 -8 -6 -13 -22 -13 -17 0 -26 5 -26 16 0
19 41 16 48 -3z m2 -68 c0 -9 -9 -15 -25 -15 -16 0 -25 6 -25 15 0 9 9 15 25
15 16 0 25 -6 25 -15z m6305 -636 c6 -6 -8 -3 -30 7 -53 22 -115 53 -115 59 0
6 133 -55 145 -66z m138 -60 c31 -16 57 -31 57 -33 0 -5 -152 63 -160 71 -11
11 48 -11 103 -38z m232 -112 c13 -12 4 -9 -78 28 -37 17 -67 33 -67 37 0 8
130 -50 145 -65z m-4782 -799 c-317 -317 -318 -318 -338 -298 -19 20 -19 20 0
39 11 10 156 150 323 310 256 246 306 290 318 280 13 -11 -33 -61 -303 -331z
m4420 -350 c-9 -10 -20 -17 -23 -16 -4 2 -145 146 -314 321 -256 266 -305 321
-295 334 11 12 63 -37 330 -303 301 -301 317 -319 302 -336z m-3395 135 c-34
-75 -59 -111 -32 -48 22 54 53 115 59 115 2 0 -10 -30 -27 -67z m-92 -197
c-19 -42 -37 -76 -40 -76 -2 0 12 36 31 80 20 44 38 78 40 76 3 -2 -11 -38
-31 -80z m-81 -177 c-29 -62 -56 -105 -44 -73 18 48 65 144 71 144 4 0 -8 -32
-27 -71z m895 -375 c45 -10 39 -34 -9 -34 -52 0 -70 8 -65 28 1 9 6 31 9 47
l7 30 13 -33 c10 -23 23 -34 45 -38z m56 -41 c-11 -11 -19 6 -11 24 8 17 8 17
12 0 3 -10 2 -21 -1 -24z m654 -928 c0 -16 -6 -25 -15 -25 -15 0 -21 31 -8 43
13 14 23 6 23 -18z m70 0 c0 -16 -6 -25 -15 -25 -9 0 -15 9 -15 25 0 16 6 25
15 25 9 0 15 -9 15 -25z m-130 -10 c0 -16 -6 -25 -15 -25 -9 0 -15 9 -15 25 0
16 6 25 15 25 9 0 15 -9 15 -25z"/>
<path d="M5566 10806 c-69 -13 -111 -26 -114 -35 -3 -10 2 -12 24 -8 16 3 73
14 127 23 65 12 97 22 97 31 0 16 1 16 -134 -11z"/>
<path d="M10763 7324 c3 -16 14 -73 23 -126 12 -68 22 -98 31 -98 11 0 12 9 7
38 -4 20 -14 75 -23 121 -10 52 -21 86 -30 89 -10 3 -12 -2 -8 -24z"/>
<path d="M1973 5678 c3 -13 13 -66 22 -118 16 -90 28 -121 40 -108 3 3 -4 60
-17 127 -16 86 -26 121 -36 121 -10 0 -12 -7 -9 -22z"/>
<path d="M7208 2017 c-74 -14 -108 -25 -108 -34 0 -11 9 -12 38 -7 20 4 75 14
121 23 46 9 86 22 89 29 5 15 -7 14 -140 -11z"/>
</g>
</svg>
