<?xml version="1.0" standalone="no"?>
<!DOCTYPE svg PUBLIC "-//W3C//DTD SVG 20010904//EN"
 "http://www.w3.org/TR/2001/REC-SVG-20010904/DTD/svg10.dtd">
<svg version="1.0" xmlns="http://www.w3.org/2000/svg"
 width="1280.000000pt" height="640.000000pt" viewBox="0 0 1280.000000 640.000000"
 preserveAspectRatio="xMidYMid meet">
<metadata>
Created by potrace 1.15, written by Peter Selinger 2001-2017
</metadata>
<g transform="translate(0.000000,640.000000) scale(0.100000,-0.100000)"
fill="#000000" stroke="none">
<path d="M7671 5211 c-8 -5 -62 -7 -120 -4 -58 3 -182 2 -274 -2 l-169 -7 -63
-44 c-73 -49 -147 -88 -188 -98 l-28 -7 3 -307 3 -307 -115 0 c-102 0 -119 -3
-152 -23 -20 -13 -38 -32 -40 -44 -2 -18 -14 -24 -70 -34 -36 -7 -79 -20 -94
-30 l-27 -18 8 -1158 7 -1158 -43 0 c-60 0 -115 17 -125 38 -4 9 -11 611 -15
1337 -6 1113 -10 1371 -23 1376 0 0 -135 4 -299 9 l-297 9 -46 -31 c-40 -27
-45 -35 -42 -59 4 -29 4 -29 -44 -29 -36 0 -59 -7 -88 -26 l-40 -27 0 -131 c0
-72 10 -342 21 -601 32 -731 33 -1393 1 -1690 l-7 -70 -84 -5 c-55 -3 -86 -9
-89 -17 -2 -9 8 -13 32 -13 46 0 86 -16 86 -35 0 -8 8 -15 18 -15 19 0 42 -18
42 -32 0 -12 -22 -10 -50 5 -20 10 -30 10 -50 0 -13 -6 -27 -9 -30 -5 -7 10
-70 9 -70 -1 0 -5 -9 -5 -20 -2 -13 4 -20 2 -21 -7 -1 -7 -5 3 -10 22 -23 97
-29 430 -29 1708 0 1073 -3 1353 -12 1356 -7 3 -159 9 -338 15 l-324 11 -32
-31 c-23 -22 -34 -44 -39 -75 l-6 -44 -37 5 c-29 4 -42 1 -63 -18 -15 -13 -31
-33 -36 -43 -7 -12 -7 -545 -2 -1504 5 -817 7 -1491 4 -1498 -3 -9 -18 -12
-42 -10 -32 3 -38 6 -38 27 0 24 -2 24 -68 22 l-68 -2 3 95 c3 90 2 96 -17 96
-19 0 -20 -6 -17 -121 3 -112 2 -120 -15 -117 -16 3 -18 16 -21 101 -2 68 1
97 9 97 8 0 7 5 -2 16 -10 12 -14 87 -17 325 l-4 308 -27 5 c-93 18 -100 18
-155 -8 -30 -14 -62 -26 -70 -26 -8 0 -19 -7 -24 -16 -6 -10 -19 -14 -38 -12
-28 3 -29 5 -32 64 -2 45 -8 66 -22 79 -17 15 -18 27 -13 101 5 72 4 84 -10
84 -9 0 -18 12 -22 29 -3 16 -15 37 -26 47 -15 13 -19 30 -19 81 0 58 -2 64
-25 73 -22 8 -24 15 -28 82 l-3 73 -2 -87 c-2 -87 -2 -87 -37 -115 -30 -24
-34 -32 -30 -63 2 -19 7 -61 10 -92 l5 -56 -34 -12 c-19 -6 -36 -19 -39 -30
-3 -11 -13 -20 -23 -20 -16 0 -16 -13 -9 -177 4 -98 9 -232 11 -298 2 -66 7
-145 10 -175 3 -30 1 -80 -5 -110 -26 -134 -43 -202 -58 -237 -14 -35 -16 -36
-23 -17 -13 35 -55 36 -87 2 -25 -26 -28 -27 -35 -11 -11 29 -9 218 3 230 8 8
8 13 0 17 -8 5 -11 114 -11 351 l0 343 -74 7 c-85 8 -112 2 -119 -25 -4 -15
-14 -20 -36 -20 -24 0 -31 -4 -31 -20 0 -24 -38 -28 -46 -5 -6 14 -8 14 -18 0
-8 -11 -34 -19 -75 -22 -46 -4 -66 -11 -74 -24 -7 -11 -19 -19 -28 -19 -9 0
-21 -6 -28 -13 -7 -9 -12 -148 -15 -428 l-4 -414 -34 -5 c-25 -4 -34 -11 -36
-28 -3 -21 -8 -24 -50 -22 -63 3 -72 2 -72 -11 0 -5 5 -7 10 -4 6 3 10 -3 10
-14 0 -11 -9 -22 -20 -26 -17 -5 -20 -16 -21 -66 -2 -73 -2 -76 -11 -85 -5 -4
-8 -1 -8 7 0 11 -9 14 -35 11 -22 -3 -35 -10 -35 -19 0 -8 -6 -13 -12 -10 -7
2 -12 10 -11 16 4 17 -18 13 -34 -7 -10 -12 -16 -14 -19 -4 -3 6 -10 12 -15
12 -6 0 -7 -4 -4 -10 3 -5 -1 -10 -9 -10 -9 0 -16 5 -16 10 0 6 -11 10 -25 10
l-24 0 -3 182 c-2 101 -5 403 -6 673 -1 269 -6 493 -11 498 -4 4 -49 11 -98
14 l-90 6 -6 -32 -7 -31 -70 0 c-56 0 -70 -3 -70 -15 0 -21 -41 -35 -101 -35
-27 0 -49 -4 -49 -10 0 -5 -12 -21 -27 -34 -25 -24 -27 -32 -27 -101 l0 -75
-63 0 c-62 0 -63 0 -77 -35 l-15 -35 -85 0 c-58 0 -86 -4 -89 -12 -4 -8 -6 -9
-6 -2 -1 8 -13 6 -36 -5 l-34 -16 -1 -237 c0 -252 1 -245 -47 -232 -15 4 -23
15 -26 38 l-4 31 -1 -32 c-2 -26 -6 -33 -22 -33 -11 0 -29 -13 -42 -30 -19
-27 -27 -30 -76 -30 -32 0 -59 -5 -67 -14 -8 -8 -41 -17 -74 -21 -34 -4 -66
-13 -73 -22 -9 -11 -13 -67 -14 -190 -2 -135 -6 -184 -20 -218 -18 -49 -34
-51 -34 -4 0 24 -4 29 -24 29 -27 0 -40 -25 -30 -56 4 -15 4 -16 -4 -5 -6 8
-17 11 -26 8 -10 -4 -16 -1 -16 8 0 12 -14 15 -63 15 -59 0 -64 -2 -81 -31
-13 -23 -21 -27 -31 -19 -7 6 -19 8 -26 5 -9 -3 -19 6 -27 25 -8 16 -33 51
-56 77 l-43 47 -31 -35 -31 -34 -1 -172 0 -173 6400 0 6400 0 0 545 c0 456 -2
545 -14 545 -7 0 -26 -3 -42 -6 l-29 -5 3 -117 c3 -105 1 -115 -12 -102 -12
12 -17 59 -23 235 -4 121 -9 212 -11 203 -4 -20 -22 -25 -22 -7 0 8 -4 8 -15
-1 -12 -10 -15 -6 -23 22 -9 36 0 33 -132 38 -8 0 -31 -2 -50 -5 -19 -3 -50
-8 -69 -11 -24 -4 -31 -8 -21 -14 11 -7 11 -11 1 -24 -10 -12 -10 -16 -2 -16
7 0 9 -4 6 -10 -15 -24 -35 -9 -35 25 0 19 -4 35 -10 35 -5 0 -10 -11 -10 -24
0 -13 -3 -33 -7 -43 -6 -16 -8 -15 -15 7 -4 14 -6 -35 -4 -107 3 -95 0 -133
-8 -132 -6 0 -56 19 -111 42 l-100 42 -5 75 c-3 41 -8 66 -11 55 -5 -15 -8 -9
-14 23 l-8 43 -87 -2 c-50 -1 -96 3 -108 10 -12 6 -22 8 -22 3 0 -5 -27 -12
-59 -16 -33 -4 -62 -12 -65 -19 -3 -9 -5 -9 -5 1 -1 7 -15 12 -36 12 -18 0
-76 15 -127 34 -96 34 -1381 550 -1477 592 l-53 24 6 202 c3 112 9 260 12 331
l6 127 -55 0 c-64 0 -67 4 -67 89 0 57 -1 58 -41 80 l-40 23 7 102 6 101 -44
55 -45 55 -7 170 c-7 181 -14 255 -25 255 -3 0 -6 -94 -6 -210 0 -202 -1 -209
-20 -212 -19 -3 -20 -9 -16 -94 l3 -90 -35 -24 -35 -24 -7 -173 -7 -174 -35
-42 -36 -42 7 -255 7 -256 -74 -47 c-41 -26 -81 -47 -89 -47 -8 0 -64 20 -123
45 -59 25 -110 44 -112 41 -2 -2 24 -15 59 -29 35 -14 85 -35 111 -47 l48 -21
-23 -20 -23 -20 32 17 c30 17 33 16 87 -6 31 -12 56 -25 56 -28 0 -3 -8 -14
-17 -25 -18 -19 -17 -19 20 -1 31 15 40 16 46 5 10 -16 -5 -88 -25 -118 -12
-19 -18 -21 -41 -12 -62 24 -94 42 -89 54 3 8 -4 10 -18 8 -12 -3 -49 7 -81
22 l-60 26 33 20 c45 29 40 34 -7 7 l-38 -22 -172 84 -171 84 0 37 c0 21 -2
43 -5 51 -3 7 -1 19 4 26 6 11 27 6 96 -22 49 -20 90 -34 92 -32 2 2 -37 20
-87 41 -49 21 -94 43 -99 49 -5 6 -11 127 -13 269 l-5 258 -38 54 c-43 62 -54
104 -55 195 0 36 -5 94 -10 129 -7 53 -15 70 -44 100 -34 35 -36 41 -36 103 0
78 -6 98 -29 98 -16 0 -19 24 -32 228 l-14 227 -7 -160 c-3 -88 -4 -185 -1
-216 6 -67 -4 -91 -59 -139 l-39 -35 11 -125 11 -125 -35 -28 c-33 -27 -36
-33 -36 -82 0 -70 -7 -85 -39 -85 -14 0 -36 -3 -49 -6 -21 -6 -22 -10 -17 -63
30 -310 58 -728 59 -876 0 -188 -6 -233 -51 -385 -48 -163 -187 -461 -224
-481 -11 -5 -17 -14 -14 -19 3 -5 -9 -50 -26 -100 -31 -88 -32 -90 -63 -90
-65 0 -76 8 -76 56 0 43 0 43 -27 33 -19 -7 -28 -6 -33 2 -5 6 -16 8 -29 4
-17 -5 -21 -2 -21 14 0 12 -6 21 -13 21 -34 0 -37 45 -37 528 0 262 -5 728
-11 1036 -11 549 -11 559 9 585 19 26 19 37 11 366 -4 187 -8 418 -8 513 l-1
172 -27 0 c-16 0 -34 -4 -42 -9z m1829 -2171 c0 -42 -4 -62 -14 -66 -13 -5
-133 43 -125 50 10 10 124 76 131 76 4 0 8 -27 8 -60z m1103 -186 c337 -136
691 -278 787 -317 96 -39 178 -75 181 -80 3 -5 8 -7 10 -6 2 2 13 -2 24 -9 16
-9 18 -14 9 -29 -7 -10 -19 -17 -28 -15 -18 3 -19 -11 -10 -70 4 -21 10 -35
15 -32 5 3 9 1 9 -4 0 -21 -33 -20 -85 3 l-55 24 0 50 c0 27 -3 56 -6 65 -13
33 -24 14 -24 -39 0 -30 -3 -55 -6 -55 -11 0 -1009 441 -1371 605 l-83 38 0
58 c0 35 4 59 11 59 6 0 286 -111 622 -246z m-1606 146 c81 -39 149 -73 152
-75 2 -3 -4 -12 -15 -21 -17 -14 -16 -14 11 -1 28 14 33 13 87 -14 32 -16 58
-32 58 -35 0 -3 -10 -14 -22 -25 -21 -18 -20 -18 13 1 l37 21 56 -28 c31 -15
56 -31 56 -35 0 -4 -30 -28 -66 -54 l-67 -48 -65 34 -65 34 29 24 29 25 -34
-21 -34 -20 -63 31 c-61 30 -63 32 -46 50 16 18 16 18 -10 7 -23 -11 -34 -8
-98 26 -40 22 -79 49 -87 61 -19 29 -30 133 -14 133 7 0 78 -32 158 -70z
m1341 -199 c847 -377 1078 -483 1090 -499 10 -12 12 -33 8 -71 -4 -30 -8 -56
-10 -58 -4 -4 -515 203 -676 275 -292 129 -763 368 -782 396 -13 19 -6 116 8
116 3 0 165 -72 362 -159z m-1397 63 c36 -18 49 -30 45 -40 -4 -12 -1 -14 13
-9 22 7 91 -25 122 -56 11 -11 23 -18 26 -15 7 6 123 -52 123 -62 0 -4 -14
-20 -32 -35 l-33 -28 43 27 43 27 59 -28 c33 -16 60 -32 60 -36 0 -3 -30 -30
-66 -58 l-66 -51 -38 23 c-20 12 -48 29 -61 38 l-24 17 25 22 25 22 -29 -17
c-32 -19 -51 -14 -119 33 l-39 26 24 18 23 19 -31 -15 c-28 -13 -33 -13 -61 4
-17 10 -38 29 -47 41 -14 21 -14 24 2 42 16 19 16 19 -5 13 -13 -4 -23 -4 -23
1 0 4 -7 29 -15 56 -8 28 -10 47 -4 47 5 0 32 -12 60 -26z m-7263 -20 c36 -10
25 -24 -18 -24 -29 0 -40 4 -40 15 0 16 20 19 58 9z m8498 -130 c101 -54 183
-99 180 -101 -3 -4 -268 101 -348 137 -24 12 -46 60 -26 60 5 0 92 -43 194
-96z m-716 54 c0 -13 -31 -131 -37 -137 -6 -8 -103 42 -103 53 0 10 117 94
133 95 4 1 7 -4 7 -11z m776 -127 c120 -48 278 -114 349 -146 156 -70 813
-401 836 -421 20 -18 13 -74 -8 -74 -13 0 -13 -3 -3 -15 7 -9 10 -18 7 -21
-10 -10 -58 6 -52 16 3 6 -5 10 -19 10 -14 0 -26 -4 -26 -10 0 -5 -7 -10 -15
-10 -8 0 -15 3 -15 8 0 4 -22 12 -48 19 -26 6 -149 57 -272 113 -247 112 -650
342 -650 371 0 23 -11 30 -26 18 -10 -8 -46 9 -143 68 -102 61 -133 84 -141
107 -12 35 -13 56 -2 56 5 0 107 -40 228 -89z m-1261 35 c18 -13 18 -14 -3
-25 -13 -7 -22 -8 -22 -2 0 5 -3 16 -6 25 -8 20 6 21 31 2z m93 -58 c26 -17
49 -35 50 -40 2 -4 8 -8 14 -8 6 0 37 -16 70 -36 l59 -36 -28 -31 -28 -30 34
23 34 23 43 -23 c28 -15 44 -30 44 -42 0 -32 -38 -96 -75 -124 l-35 -26 -55
42 c-31 24 -58 47 -62 53 -3 5 12 25 33 44 l39 35 -41 -31 c-23 -17 -46 -31
-52 -31 -15 0 -102 80 -102 95 0 7 10 20 23 29 l22 17 -24 -12 c-29 -13 -34
-8 -56 59 -28 87 10 107 93 50z m1115 -86 c87 -53 107 -70 107 -88 0 -28 1
-28 -142 39 -91 42 -97 47 -107 83 -19 67 -28 69 142 -34z m-783 12 c-10 -42
-30 -94 -38 -94 -7 0 -72 41 -72 45 0 6 104 85 111 85 4 0 3 -16 -1 -36z
m3150 -44 c0 -5 -5 -10 -11 -10 -5 0 -7 5 -4 10 3 6 8 10 11 10 2 0 4 -4 4
-10z m-2321 -69 c48 -24 59 -36 64 -60 7 -36 20 -40 33 -11 9 19 16 17 152
-44 273 -123 610 -314 575 -327 -12 -4 -13 -8 -5 -13 22 -13 13 -26 -18 -26
-20 0 -30 5 -30 15 0 12 -15 15 -77 14 -43 -1 -70 -3 -60 -6 28 -7 19 -23 -14
-23 -24 0 -30 4 -25 15 9 23 -31 19 -44 -5 -12 -23 -38 -26 -46 -6 -3 8 -20
17 -38 20 -69 13 -353 226 -373 279 -6 18 -12 26 -12 20 -2 -26 -35 -11 -118
54 -80 63 -122 117 -123 160 0 15 63 -8 159 -56z m1661 39 c0 -5 -4 -10 -10
-10 -5 0 -10 5 -10 10 0 6 5 10 10 10 6 0 10 -4 10 -10z m70 0 c0 -5 -4 -10
-10 -10 -5 0 -10 5 -10 10 0 6 5 10 10 10 6 0 10 -4 10 -10z m27 -37 c-3 -10
-5 -2 -5 17 0 19 2 27 5 18 2 -10 2 -26 0 -35z m-1550 -54 c46 -28 82 -53 80
-56 -6 -5 -165 63 -184 79 -7 6 -13 17 -13 25 0 20 14 14 117 -48z m-1353 -2
c15 -24 -3 -35 -20 -13 -8 11 -14 24 -14 29 0 13 22 3 34 -16z m2516 -7 c0 -5
-4 -10 -10 -10 -5 0 -10 5 -10 10 0 6 5 10 10 10 6 0 10 -4 10 -10z m-2420
-63 l62 -49 -28 -29 c-15 -16 -33 -29 -38 -29 -6 0 -30 30 -53 67 -31 51 -39
71 -31 81 14 16 15 16 88 -41z m1064 -37 c42 -33 76 -65 76 -71 0 -5 4 -7 10
-4 5 3 39 -18 76 -47 37 -28 62 -54 56 -56 -13 -4 -86 32 -129 65 -18 13 -33
21 -33 18 0 -3 -22 6 -50 21 -47 25 -81 66 -108 127 -11 26 -11 27 7 17 11 -5
54 -37 95 -70z m1014 -52 c154 -63 172 -74 172 -95 0 -12 -2 -23 -5 -23 -9 0
-425 210 -425 215 0 7 70 -20 258 -97z m297 40 c26 -14 28 -19 29 -82 1 -36
-1 -66 -4 -66 -2 0 -30 10 -61 22 l-57 22 -6 58 c-8 80 -3 91 38 74 18 -7 45
-20 61 -28z m-2255 12 c-11 -20 -30 -28 -30 -12 0 11 22 32 32 32 5 0 4 -9 -2
-20z m-400 -36 c0 -6 -7 -17 -15 -24 -13 -11 -15 -7 -15 31 0 40 1 41 15 23 8
-10 15 -24 15 -30z m3246 1 c127 -49 126 -48 132 -138 l5 -77 -74 0 c-50 0
-87 6 -115 19 -38 17 -41 23 -47 66 -9 65 -9 165 1 165 4 0 48 -16 98 -35z
m-2891 -56 c-28 -55 -46 -61 -64 -23 -11 24 -8 29 25 60 28 27 39 32 50 23 11
-9 9 -19 -11 -60z m-848 -36 c-4 -103 -18 -130 -28 -53 -5 45 -5 45 -10 10 -3
-26 -9 -35 -21 -34 -10 1 -18 -5 -18 -12 0 -10 -7 -13 -26 -8 -23 6 -25 4 -19
-15 5 -15 2 -21 -9 -21 -23 0 -20 56 4 80 11 11 20 23 20 26 0 3 10 19 23 34
12 15 33 42 46 59 13 17 27 31 32 31 6 0 8 -42 6 -97z m1572 44 c1 14 31 6 31
-9 0 -5 12 -21 26 -35 16 -16 24 -33 21 -44 -5 -20 9 -27 15 -7 6 17 58 -40
58 -63 0 -12 8 -23 20 -26 13 -3 20 -13 19 -27 -1 -17 -2 -17 -6 -3 -2 9 -13
17 -24 17 -11 0 -19 7 -19 16 0 10 -6 13 -19 9 -13 -4 -20 0 -24 16 -5 19 -8
20 -21 9 -13 -10 -16 -10 -16 4 0 9 -3 15 -7 15 -21 -3 -33 2 -33 15 0 9 -7
12 -20 9 -19 -5 -20 -1 -19 73 1 58 3 71 9 49 4 -16 8 -25 9 -18z m-1047 -89
c3 -75 1 -98 -9 -98 -10 0 -13 25 -13 103 0 57 3 107 8 111 9 10 10 1 14 -116z
m578 52 c0 -53 -2 -60 -20 -60 -17 0 -20 7 -20 50 0 36 5 52 18 59 9 6 18 11
20 11 1 0 2 -27 2 -60z m-540 -56 c0 -49 -4 -84 -10 -84 -6 0 -10 37 -10 91 0
57 4 88 10 84 6 -3 10 -44 10 -91z m-80 -10 c0 -61 -4 -93 -10 -89 -5 3 -10
46 -10 96 0 53 4 89 10 89 6 0 10 -39 10 -96z m1410 46 c0 -26 21 -37 32 -17
8 15 15 14 61 -12 29 -16 91 -49 140 -75 78 -42 86 -49 77 -67 -14 -25 -70
-27 -70 -1 -1 15 -2 15 -13 1 -7 -9 -22 -21 -33 -27 -19 -10 -23 -9 -28 14
l-7 25 -33 -20 c-41 -26 -52 -26 -60 -3 -3 9 -13 28 -21 42 -8 14 -15 40 -15
57 0 26 -5 34 -24 39 -13 3 -32 22 -45 44 -28 50 -27 53 9 35 17 -9 30 -23 30
-35z m-845 -8 c-8 -8 -25 10 -19 20 4 6 9 5 15 -3 4 -7 6 -15 4 -17z m-445
-37 c0 -24 -4 -47 -10 -50 -6 -4 -10 15 -10 50 0 35 4 54 10 50 6 -3 10 -26
10 -50z m2538 14 c36 -16 42 -22 42 -49 0 -16 -2 -30 -5 -30 -12 0 -111 53
-117 64 -4 6 -8 19 -8 29 0 20 11 19 88 -14z m-2094 -15 c10 -26 7 -154 -4
-154 -5 0 -10 19 -11 43 -1 79 -18 87 -18 9 -1 -46 -5 -71 -11 -67 -11 7 -14
168 -3 178 12 13 41 7 47 -9z m-400 -51 c5 -35 3 -43 -9 -43 -16 0 -21 43 -9
75 8 21 10 18 18 -32z m2035 3 c54 -28 72 -46 45 -46 -20 0 -144 70 -144 82 0
9 32 -3 99 -36z m-1699 -18 c0 -24 -3 -61 -7 -83 -6 -36 -7 -38 -14 -15 -9 33
-11 125 -2 133 15 16 23 4 23 -35z m120 -24 c0 -23 -5 -46 -10 -49 -6 -4 -8
-15 -5 -26 4 -10 2 -19 -3 -19 -10 0 -23 138 -15 153 11 20 33 -19 33 -59z
m-1260 26 c0 -19 -7 -33 -21 -40 -21 -12 -41 -5 -24 8 6 4 16 19 22 35 16 35
23 34 23 -3z m1738 -24 c2 -36 0 -47 -10 -44 -8 3 -14 24 -16 52 -2 36 0 47
10 44 8 -3 14 -24 16 -52z m1525 38 c58 -29 86 -64 52 -64 -8 0 -15 7 -15 15
0 11 -11 15 -39 15 -30 0 -40 4 -44 19 -9 34 1 37 46 15z m-2413 -58 c0 -41
-17 -22 -25 29 -6 37 -5 39 9 21 9 -11 16 -33 16 -50z m944 24 c10 0 16 -8 16
-24 0 -19 -5 -23 -30 -22 -28 1 -30 3 -30 41 1 35 2 38 14 23 7 -10 21 -18 30
-18z m-1037 -2 c-3 -8 -6 -5 -6 6 -1 11 2 17 5 13 3 -3 4 -12 1 -19z m343 -43
c0 -30 -4 -55 -9 -55 -9 0 -22 90 -14 102 13 22 23 2 23 -47z m2910 45 c0 -5
-11 -10 -25 -10 -14 0 -25 5 -25 10 0 6 11 10 25 10 14 0 25 -4 25 -10z m-755
-20 c-3 -5 -13 -10 -21 -10 -8 0 -14 5 -14 10 0 6 9 10 21 10 11 0 17 -4 14
-10z m-1408 -26 c-9 -9 -28 6 -21 18 4 6 10 6 17 -1 6 -6 8 -13 4 -17z m1123
16 c12 -8 9 -10 -12 -10 -16 0 -28 5 -28 10 0 13 20 13 40 0z m-265 -10 c-3
-5 -17 -10 -31 -10 -13 0 -24 5 -24 10 0 6 14 10 31 10 17 0 28 -4 24 -10z
m155 0 c-19 -13 -30 -13 -30 0 0 6 10 10 23 10 18 0 19 -2 7 -10z m-4760 -20
c0 -21 -15 -27 -25 -10 -7 12 2 30 16 30 5 0 9 -9 9 -20z m1889 -17 c0 -31 -2
-34 -9 -18 l-9 20 -2 -20 c-1 -11 -2 -26 -2 -32 1 -22 -14 -14 -21 10 -13 48
-3 65 42 76 1 1 2 -16 1 -36z m-7436 20 c-13 -2 -35 -2 -50 0 -16 2 -5 4 22 4
28 0 40 -2 28 -4z m5472 -12 c-7 -13 -36 -14 -62 -4 -13 6 -8 9 22 13 46 6 50
5 40 -9z m1615 -1 c0 -11 -4 -20 -9 -20 -5 0 -23 -3 -40 -6 -23 -5 -31 -3 -31
8 0 22 22 38 52 38 21 0 28 -5 28 -20z m1240 10 c0 -5 -4 -10 -10 -10 -5 0
-10 5 -10 10 0 6 5 10 10 10 6 0 10 -4 10 -10z m850 -10 c0 -5 -4 -10 -10 -10
-5 0 -10 5 -10 10 0 6 5 10 10 10 6 0 10 -4 10 -10z m-3770 -30 c0 -5 -4 -10
-10 -10 -5 0 -10 5 -10 10 0 6 5 10 10 10 6 0 10 -4 10 -10z m90 -25 l0 -36
-37 7 c-21 4 -46 7 -55 6 -10 0 -18 3 -18 8 0 13 63 50 88 50 19 0 22 -5 22
-35z m50 0 c0 -24 -5 -35 -15 -35 -10 0 -15 11 -15 35 0 24 5 35 15 35 10 0
15 -11 15 -35z"/>
<path d="M9079 2543 c-13 -15 -12 -15 9 -4 23 12 28 21 13 21 -5 0 -15 -7 -22
-17z"/>
<path d="M9050 3135 c14 -8 30 -14 35 -14 6 0 -1 6 -15 14 -14 8 -29 14 -35
14 -5 0 1 -6 15 -14z"/>
<path d="M12624 2513 c11 -11 46 -14 46 -3 0 6 -12 10 -27 10 -14 0 -23 -3
-19 -7z"/>
<path d="M894 2145 c19 -15 19 -15 -2 -15 -12 0 -22 -4 -22 -10 0 -5 24 -10
53 -9 l52 1 -30 13 c-27 13 -28 14 -7 15 13 0 20 4 17 10 -3 6 -23 10 -43 10
-35 -1 -36 -2 -18 -15z"/>
</g>
</svg>
